<svg xmlns="http://www.w3.org/2000/svg" viewBox="0 0 512 512" role="img" aria-label="Markdown Viewer">
  <defs>
    <filter id="shadow" x="-20%" y="-20%" width="140%" height="140%">
      <feDropShadow dx="0" dy="10" stdDeviation="12" flood-color="#C9BBA9" flood-opacity=".22"/>
    </filter>
  </defs>
  <rect width="512" height="512" rx="112" fill="#F7F5F2"/>
  <rect x="104" y="88" width="304" height="336" rx="52" fill="#F8F4EC" stroke="#E7DED0" stroke-width="4" filter="url(#shadow)"/>
  <path d="M340 88h-54a34 34 0 0 0-34 34v54a18 18 0 0 0 18 18h72a18 18 0 0 0 18-18v-68a20 20 0 0 0-20-20Z" fill="#DED4C7"/>
  <path d="M340 88v62a18 18 0 0 0 18 18h-72a18 18 0 0 1-18-18V122a34 34 0 0 1 34-34Z" fill="#E8DFD2"/>
  <rect x="152" y="154" width="126" height="16" rx="8" fill="#C86A4A"/>
  <rect x="152" y="210" width="186" height="12" rx="6" fill="#E1D7C8"/>
  <rect x="152" y="258" width="186" height="12" rx="6" fill="#E1D7C8"/>
  <path d="M148 344V258h31l43 42 43-42h31v86h-34v-39l-40 39-40-39v39z" fill="#C86A4A"/>
</svg>
